# xmcd
#
# Track frame offsets: 
#        150
#        23323
#        45437
#        68348
#        90541
#        110873
#        126734
#        146104
#        164123
#        178986
#        200993
#        216747
#        228863
#
# Disc length: 3106 seconds
#
# Revision: 0
# Processed by: cddbd v1.5.2PL0 Copyright (c) Steve Scherf et al.
# Submitted via: ExactAudioCopy v1.0b2
#
DISCID=ca0c200d
DTITLE=Paul Warren - Round Trip
DYEAR=2011
DGENRE=Blues
TTITLE0=Back Where I Belong
TTITLE1=Can't Go Home
TTITLE2=High Price to Pay
TTITLE3=Low Self Esteem (A Love Story)
TTITLE4=Turn Your Back On Love
TTITLE5=Motown
TTITLE6=Love On
TTITLE7=Made To Be Loved
TTITLE8=Slow Simmer Man
TTITLE9=Goodbye Loralie
TTITLE10=Sweet Sixteen
TTITLE11=Gotta Rock
TTITLE12=I Love My Baby
EXTD=
EXTT0=
EXTT1=
EXTT2=
EXTT3=
EXTT4=
EXTT5=
EXTT6=
EXTT7=
EXTT8=
EXTT9=
EXTT10=
EXTT11=
EXTT12=
PLAYORDER=
